<svg width="288" height="284" viewBox="0 0 288 284" fill="none" xmlns="http://www.w3.org/2000/svg">
<ellipse cx="144" cy="142" rx="144" ry="142" fill="#3C88A0"/>
<path d="M56.6667 131.667L107.167 131.667M107.167 131.667L90.3334 121M107.167 131.667L90.3334 142.333M90.3334 158.333L39.8334 158.333M39.8334 158.333L56.6667 169M39.8334 158.333L56.6667 147.667" stroke="#111827" stroke-width="2" stroke-linecap="round" stroke-linejoin="round"/>
<path fill-rule="evenodd" clip-rule="evenodd" d="M168 193C168 196.866 172.701 200 178.5 200H189V205.172L185.121 202.586C183.95 201.805 182.05 201.805 180.879 202.586C179.707 203.367 179.707 204.633 180.879 205.414L189.879 211.414C191.05 212.195 192.95 212.195 194.121 211.414L203.121 205.414C204.293 204.633 204.293 203.367 203.121 202.586C201.95 201.805 200.05 201.805 198.879 202.586L195 205.172V200H202.5C209.956 200 216 195.971 216 191C216 186.029 209.956 182 202.5 182C201.874 182 201.257 182.028 200.653 182.083C199.365 178.591 194.637 176 189 176C182.373 176 177 179.582 177 184C177 184.704 177.137 185.388 177.393 186.038C172.114 186.407 168 189.383 168 193ZM195 200H189V190C189 188.895 190.343 188 192 188C193.657 188 195 188.895 195 190V200Z" fill="#111827"/>
<path d="M252.25 136.2C257.138 136.2 261.1 132.305 261.1 127.5C261.1 122.695 257.138 118.8 252.25 118.8C247.362 118.8 243.4 122.695 243.4 127.5C243.4 127.864 243.423 128.223 243.467 128.575L228.894 135.738C227.302 134.228 225.136 133.3 222.75 133.3C217.862 133.3 213.9 137.195 213.9 142C213.9 146.805 217.862 150.7 222.75 150.7C225.136 150.7 227.302 149.772 228.894 148.262L243.467 155.425C243.423 155.777 243.4 156.136 243.4 156.5C243.4 161.305 247.362 165.2 252.25 165.2C257.138 165.2 261.1 161.305 261.1 156.5C261.1 151.695 257.138 147.8 252.25 147.8C249.864 147.8 247.698 148.728 246.106 150.238L231.533 143.075C231.577 142.723 231.6 142.364 231.6 142C231.6 141.636 231.577 141.277 231.533 140.925L246.106 133.762C247.698 135.272 249.864 136.2 252.25 136.2Z" fill="#111827"/>
<path fill-rule="evenodd" clip-rule="evenodd" d="M189.5 95.7C203.859 95.7 215.5 84.4176 215.5 70.5C215.5 56.5824 203.859 45.3 189.5 45.3C175.141 45.3 163.5 56.5824 163.5 70.5C163.5 84.4176 175.141 95.7 189.5 95.7ZM171.078 64.2863C172.293 60.9038 174.471 57.9587 177.294 55.7597C178.164 57.0484 179.667 57.8997 181.375 57.8997C184.067 57.8997 186.25 60.0152 186.25 62.6247V64.1997C186.25 67.6791 189.16 70.4997 192.75 70.4997C196.34 70.4997 199.25 67.6791 199.25 64.1997C199.25 61.2383 201.358 58.7542 204.199 58.0801C207.189 61.4016 209 65.7457 209 70.4997C209 71.5732 208.908 72.6257 208.73 73.6503H205.75C202.16 73.6503 199.25 76.4709 199.25 79.9503V86.8713C196.382 88.4794 193.051 89.3997 189.5 89.3997V83.1C189.5 79.6206 186.59 76.8 183 76.8C179.41 76.8 176.5 73.9794 176.5 70.5C176.5 67.3767 174.155 64.7843 171.078 64.2863Z" fill="#111827"/>
<ellipse cx="73" cy="142" rx="73" ry="72" fill="#5BFBD4" fill-opacity="0.25"/>
</svg>
