<svg width="50" height="50" viewBox="0 0 50 50" fill="none" xmlns="http://www.w3.org/2000/svg">
<path fill-rule="evenodd" clip-rule="evenodd" d="M45 25C45 36.0457 36.0457 45 25 45C13.9543 45 5 36.0457 5 25C5 13.9543 13.9543 5 25 5C36.0457 5 45 13.9543 45 25ZM30 17.5C30 20.2614 27.7614 22.5 25 22.5C22.2386 22.5 20 20.2614 20 17.5C20 14.7386 22.2386 12.5 25 12.5C27.7614 12.5 30 14.7386 30 17.5ZM24.9998 27.5C19.956 27.5 15.6099 30.4874 13.6343 34.7893C16.3851 37.9801 20.4566 40 25 40C29.5432 40 33.6147 37.9802 36.3654 34.7895C34.3899 30.4875 30.0438 27.5 24.9998 27.5Z" fill="#111827"/>
</svg>
